<svg xmlns="http://www.w3.org/2000/svg"  viewBox="0 0 48 48" width="48px" height="48px"><rect width="1" height="9" x="8" y="9" fill="#424242"/><rect width="1" height="9" x="17" y="6" fill="#424242"/><rect width="1" height="9" x="30" y="6" fill="#424242"/><rect width="1" height="10" x="39" y="9" fill="#424242"/><path fill="#1565c0" d="M44,22c0,0.377-0.089,0.766-0.256,1.143c-0.244,0.594-0.678,1.189-1.289,1.771	c-1.322,1.257-3.444,2.423-6.2,3.326c-1.5,0.48-3.178,0.891-5.022,1.189C29.033,29.794,26.6,30,24,30s-5.033-0.206-7.233-0.571	c-1.844-0.297-3.522-0.709-5.022-1.189c-2.756-0.903-4.878-2.069-6.2-3.326c-0.611-0.583-1.044-1.177-1.289-1.771	C4.089,22.766,4,22.377,4,22c0-3.783,8.211-8,20-8S44,18.217,44,22z"/><path fill="#0d47a1" d="M24,33.519c-10.584,0-18.875-3.895-18.875-8.867S13.416,15.784,24,15.784s18.875,3.895,18.875,8.867	S34.584,33.519,24,33.519z M24,16.784c-9.689,0-17.875,3.603-17.875,7.867S14.311,32.519,24,32.519s17.875-3.603,17.875-7.867	S33.689,16.784,24,16.784z"/><path fill="#0d47a1" d="M24,33.519c-9.406,0-16.775-3.436-16.775-7.821S14.594,17.876,24,17.876s16.775,3.436,16.775,7.821	S33.406,33.519,24,33.519z M24,18.876c-8.551,0-15.775,3.124-15.775,6.821S15.449,32.519,24,32.519s15.775-3.124,15.775-6.821	S32.551,18.876,24,18.876z"/><rect width="8.94" height="1" x="24.78" y="17.876" fill="#e8f5e9" transform="rotate(-69.354 29.249 18.376)"/><rect width="8.441" height="1" x="32.905" y="20.491" fill="#e8f5e9" transform="rotate(-60.132 37.123 20.99)"/><rect width="1" height="8.94" x="18.25" y="13.906" fill="#e8f5e9" transform="rotate(-20.633 18.75 18.375)"/><rect width="1" height="8.441" x="10.375" y="16.77" fill="#e8f5e9" transform="rotate(-29.842 10.875 20.992)"/><ellipse cx="24" cy="27.266" fill="#388e3c" rx="14.175" ry="6.275"/><path fill="#e8f5e9" d="M24,34.042c-8.229,0-14.675-2.976-14.675-6.775S15.771,20.491,24,20.491s14.675,2.976,14.675,6.775 S32.229,34.042,24,34.042z M24,21.491c-7.413,0-13.675,2.645-13.675,5.775S16.587,33.042,24,33.042s13.675-2.645,13.675-5.775 S31.413,21.491,24,21.491z"/><path fill="#757575" d="M43.95,23.083v12.362c0,3.681-5.155,6.746-12.6,7.97C29.082,43.791,26.604,44,24,44	s-5.082-0.209-7.35-0.586c-7.445-1.224-12.6-4.288-12.6-7.97V23.083h1.291c0.231,0.492,0.641,0.994,1.218,1.475	c0.966,1.391,3.224,2.74,6.437,3.713c1.344,0.408,2.856,0.743,4.515,0.994c1.974,0.303,4.158,0.471,6.489,0.471	s4.515-0.167,6.489-0.471c1.659-0.251,3.171-0.586,4.515-0.994c3.213-0.973,5.471-2.322,6.437-3.713	c0.577-0.481,0.987-0.983,1.218-1.475H43.95z"/><path fill="#bdbdbd" d="M24,12.624c-11.771,0-21,4.131-21,9.413c0,0.178,0.011,0.356,0.032,0.523v0.031	c0.021,0.167,0.052,0.324,0.094,0.492c0.158,0.669,0.473,1.328,0.924,1.945c1.061,1.475,2.898,2.772,5.302,3.807	c0.935,0.408,1.963,0.774,3.066,1.088C15.715,30.895,19.695,31.45,24,31.45s8.285-0.554,11.582-1.527	c1.102-0.314,2.131-0.68,3.066-1.088c2.404-1.035,4.242-2.332,5.302-3.807c0.451-0.617,0.766-1.276,0.924-1.945	c0.042-0.167,0.074-0.324,0.094-0.492V22.56C44.989,22.392,45,22.214,45,22.037C45,16.755,35.771,12.624,24,12.624z M41.44,24.704	c-1.25,1.15-3.255,2.217-5.859,3.043c-1.418,0.439-3.003,0.816-4.746,1.088c-2.079,0.335-4.378,0.523-6.836,0.523	s-4.757-0.188-6.836-0.523c-1.743-0.272-3.328-0.648-4.746-1.088c-2.604-0.826-4.609-1.893-5.859-3.043	c-0.577-0.533-0.987-1.077-1.218-1.621C5.184,22.737,5.1,22.382,5.1,22.037c0-3.462,7.76-7.321,18.9-7.321s18.9,3.859,18.9,7.321	c0,0.345-0.084,0.701-0.241,1.046C42.427,23.626,42.018,24.17,41.44,24.704z"/><path fill="#424242" d="M31,34v9.378C28.84,43.778,26.48,44,24,44s-4.84-0.222-7-0.622V34H31z"/><path fill="#bf360c" d="M13.5,10c-1.833,0.667-3.667,1.333-5.5,2V8C9.833,8.667,11.667,9.333,13.5,10z"/><path fill="#bf360c" d="M22.5,7c-1.833,0.667-3.667,1.333-5.5,2V5C18.833,5.667,20.667,6.333,22.5,7z"/><path fill="#bf360c" d="M35.5,7c-1.833,0.667-3.667,1.333-5.5,2V5C31.833,5.667,33.667,6.333,35.5,7z"/><path fill="#bf360c" d="M44.5,10c-1.833,0.667-3.667,1.333-5.5,2V8C40.833,8.667,42.667,9.333,44.5,10z"/></svg>