<svg xmlns="http://www.w3.org/2000/svg" width="100" height="100" viewBox="0 0 48 48"><path fill="#b57e02" d="M25 39h4s-.938-4.062-.938-7.062C28.062 29.701 28 17 28 17l-3 22z"/><path fill="#5ec08f" d="m17 45 2-6h10l2 6s0 1-1 1H18c-1 0-1-1-1-1z"/><path fill="#dd9f05" d="M24 2a10 10 0 1 0 0 20 10 10 0 1 0 0-20Z"/><path fill="#dd9f05" d="M22 39s7-19 10-19c-2 5-3 15-6 19h-4z"/><path fill="#398e5f" d="M29.666 41 29 39H19l-.666 2z"/><path fill="#ffc107" d="M16 14c0-5.523 4.478-10 10-10a9.95 9.95 0 0 1 5.992 2.008C30.168 3.578 27.271 2 24 2c-5.522 0-10 4.477-10 10 0 3.271 1.579 6.168 4.008 7.992A9.946 9.946 0 0 1 16 14z"/><path fill="#ffc107" d="M13 15s5 6 6 10 1 6 0 14h6s-1.337-23.799-4.563-22.187C18.729 18.293 16 19 13 15z"/><path fill="#b57e02" d="M26 12a3 3.75 0 1 0 0 7.5 3 3.75 0 1 0 0-7.5Z"/><path fill="#b57e02" d="M27 20c2.457 0 4.156-3.392 5.103-6.011L33 11s-3 6-6 7c-2.377.792-5.049-3.194-6.058-4.887C22.397 15.823 23.812 20 27 20zm-8.875-7.542-.005-.009c.242.991.661 3.315-.654 3.544-1.018.011-2.321-.576-3.466-2.966l-.992 1.983c.018.022.215.261.531.661 2.733 3.177 5.196 2.555 6.804 1.217a63.115 63.115 0 0 0-2.218-4.43z"/><path fill="#ffe082" d="M34 10a1 1 0 0 0-1 1s-2 9-6 9-5.208-6.583-7.208-8.583A.984.984 0 0 0 19 11a1 1 0 0 0-1 1c0 .091.029.173.052.256l-.031.015.053.095c.013.033.034.06.051.091C18.809 13.689 23 21.408 23 26c0 5-4 13-4 13h3c2-3 13-22 13-28a1 1 0 0 0-1-1z"/><path fill="#ffe082" d="M27 13a2 2.5 0 1 0 0 5 2 2.5 0 1 0 0-5Z"/></svg>